<svg id="Слой_1" data-name="Слой 1" xmlns="http://www.w3.org/2000/svg" viewBox="0 0 330.89 529.18"><defs><style>.cls-1{fill:#34b0b0;}</style></defs><title>адрес</title><path class="cls-1" d="M300.52,22.91c9.3,1.52,18.7,2.57,27.87,4.65a158.89,158.89,0,0,1,64.14,30.87A162.34,162.34,0,0,1,439.91,118c18,38.89,20.88,79.08,8.11,119.78-4.89,15.58-12.91,30.25-20.13,45-9.76,20-20.12,39.68-30.25,59.49-9.93,19.43-19.93,38.83-29.84,58.27Q347.57,440.24,327.41,480c-12.15,23.81-24.38,47.57-37,72.12-3-5.64-5.71-10.62-8.28-15.68q-22.32-43.84-44.58-87.73-24.16-47.4-48.44-94.76C179,334.1,168.87,314.31,158.94,294.4c-7.91-15.86-16.19-31.58-23.08-47.88C125.66,222.4,123.34,196.86,126,171a161.58,161.58,0,0,1,29.92-78.85A164.85,164.85,0,0,1,276.5,23.58c1.25-.11,2.48-.44,3.72-.67ZM290.11,89.06c-54.5,0-99.09,44.86-98.94,99.47a99.2,99.2,0,1,0,98.94-99.47Z" transform="translate(-124.98 -22.91)"/></svg>