<svg id="Слой_1" data-name="Слой 1" xmlns="http://www.w3.org/2000/svg" viewBox="0 0 313.9 210.44"><defs><style>.cls-1{fill:#34b0b0;}</style></defs><title>почта</title><path class="cls-1" d="M147.13,203.84a32,32,0,0,1,20.67-7.6q71.2-.11,142.42-.07,62.2,0,124.43,0c7.51,0,14.07,2.1,19.38,8.56-2.91,2.55-5.69,5.07-8.55,7.48Q377.17,270,308.84,327.67c-8.79,7.42-11.86,7.27-20.51-.3Q219.5,267.19,150.61,207.06C149.62,206.2,148.68,205.28,147.13,203.84Z" transform="translate(-144.57 -196.17)"/><path class="cls-1" d="M261.66,326c9.62,8.42,19.17,16.69,28.61,25.1,5.7,5.08,9.88,5.52,15.89.63,9.69-7.88,19.19-16,28.78-24,1.25-1.05,2.55-2,4.07-3.25l102.68,82.13H160.91Z" transform="translate(-144.57 -196.17)"/><path class="cls-1" d="M354.31,311.45l104.16-88.27V394.75Z" transform="translate(-144.57 -196.17)"/><path class="cls-1" d="M144.57,394.38V223.74l102,89.07Z" transform="translate(-144.57 -196.17)"/></svg>