<svg id="Слой_1" data-name="Слой 1" xmlns="http://www.w3.org/2000/svg" viewBox="0 0 2500.5 3367.5"><defs><style>.cls-1{fill:#34b0b0;}</style></defs><title>телефон - контакты</title><path class="cls-1" d="M-948.5-743.5a75.09,75.09,0,0,0,1.61-8.7c2.14-31.67,4.81-63.28,10.28-94.58C-911.73-989.16-846-1108-733.42-1200c51.47-42,108.33-75.06,169.26-101.26,68.91-29.65,140.57-50.06,214.35-63.31a979.76,979.76,0,0,1,121.23-14.28c2.44-.13,4.9,0,7.93,0,.33,5.7.77,10.89.92,16.09q3.78,127,7.47,254.08c1.28,44.47,2.34,89,3.65,133.42,1.67,56.21,3.55,112.41,5.22,168.62,1.31,44.22,2.35,88.45,3.65,132.67,1.18,40.23,2.6,80.44,3.79,120.66q1.94,65.58,3.65,131.17c.11,4.25.17,8.5.34,12.74.27,6.84.29,6.8-6.22,9.89-36.89,17.49-70.51,39.66-99,69.22-38.43,39.93-61.45,87.54-70.71,142-8,47-5.19,93.6,4.94,139.92,2.72,12.42,6.31,24.66,9.61,37,5.48,20.45,15.73,38.84,25.21,57.53,38.57,76,77,152,116,227.73Q-147.52,399.47-82,524.65C-19.55,643.94,44,762.64,110.23,879.93,144.12,940,178.34,999.87,215.8,1057.81c15.87,24.55,31.77,49.11,51.53,70.86,31.39,34.55,69.23,58.68,114.64,70.17,33.63,8.51,67.71,9.13,101.94,4,47.23-7.12,91.37-23.1,132.93-46.45,1.3-.74,2.64-1.4,4.55-2.4l774.14,608.64c-2.21,1.64-3.67,2.88-5.27,3.9-53.13,34-108.8,63.34-166.19,89.41-99.12,45-201.5,81.09-306.38,110.13-22.14,6.13-44.48,11.51-66.71,17.28a27.57,27.57,0,0,0-4,1.68H650.5c-3.36-.72-6.69-1.58-10.08-2.12-61.44-9.75-120.89-26.73-178.65-49.67-87.33-34.68-168.2-81.15-244.95-135-74-51.93-143-110-208.7-172-89.6-84.55-171.89-175.86-250.07-270.94Q-348.43,1225.72-444.1,1088c-42.9-61.48-85-123.54-126.81-185.75-19-28.19-37.26-56.88-54.38-86.2-36.59-62.66-67.29-128.27-94.74-195.41-28-68.49-52.12-138.35-73.4-209.18C-816.94,333.21-836.87,254-854,174.16Q-872.94,85.87-887.5-3.26-902.74-95.33-913.7-188q-7.57-64.38-13.48-128.95c-4.1-45.29-8-90.63-10.46-136-3.54-64.88-5.67-129.84-8.52-194.76-.46-10.44-1.55-20.85-2.34-31.27Z" transform="translate(948.5 1382.5)"/><path class="cls-1" d="M1552,1487c-4.93,18.26-9.28,36.71-14.91,54.75-16.72,53.63-33.95,107.1-51,160.62-1.18,3.74-2.5,7.43-4.15,12.31L686,1082.9c2.18-1.39,3.57-2.43,5.08-3.24,66.26-35,132.65-69.76,198.7-105.15,11.09-6,22.16-5.35,33.43-4.18,31.64,3.29,60.67,14.88,87.41,31.45,22.69,14.06,44.65,29.41,66.11,45.31,115.47,85.54,228.17,174.68,341.14,263.47,26.33,20.69,52.94,41,78.77,62.34,25,20.63,43,46.47,52,77.95,1.43,5,2.22,10.1,3.31,15.15Z" transform="translate(948.5 1382.5)"/><path class="cls-1" d="M-93.5-1382.5c6.58,1.22,13.15,2.45,19.74,3.65,28,5.07,54.43,14.76,79.92,27.15,28.39,13.8,55.54,29.67,79.91,49.93,13.89,11.55,26.57,24.25,36.38,39.59,7,11,11,22.51,11.18,35.88.66,68.74,1.79,137.47,2.82,206.21q1.88,126.35,3.83,252.69c.81,55,1.45,110,2.2,165,.13,10,.62,20,.55,30,0,2.8-.69,6.16-2.33,8.28-21.39,27.73-43.8,54.6-69.28,78.73C58.27-473,42.84-463.63,27.13-454.81c-26,14.62-53.08,26.94-82.45,33.05-9.43,2-19.31,2-29,2.32-3.35.12-6.89-1.14-10.12-2.36-6.76-2.55-11.46-7.32-12.51-14.65-1.74-12.11-3.72-24.24-4.47-36.43-2.44-39.66-4.8-79.33-6.38-119Q-121.21-677-123.44-762c-1.53-54.73-2.62-109.46-3.75-164.19-1-46.74-1.74-93.48-2.57-140.22-.8-45-1.66-90-2.29-135-.81-57.49-1.4-115-2.08-172.47,0-1.48.13-3,.22-4.84l13.41-3.78Z" transform="translate(948.5 1382.5)"/></svg>