<svg id="Слой_1" data-name="Слой 1" xmlns="http://www.w3.org/2000/svg" viewBox="0 0 509.94 876.89"><defs><style>.cls-1{fill:#66c4c4;}.cls-2{fill:#185b5b;}</style></defs><title>1 шаг</title><path class="cls-1" d="M438.25-30.7h24a31.3,31.3,0,0,0,5.52,1c58.81,0,117.61.18,176.41-.06,12.76-.06,23.78,3.87,34,11a64.16,64.16,0,0,1,20,22.48,102.34,102.34,0,0,1,7.27,17.4c1.77,5.58,2.55,11.47,3.77,17.23v2a21.33,21.33,0,0,0-1,4.52q-.06,363.44,0,726.86a21.33,21.33,0,0,0,1,4.52v2a8.63,8.63,0,0,0-1,2c-1.23,6.68-1.22,13.88-3.86,19.93-3.8,8.71-8.48,17.49-14.68,24.58-8.21,9.39-18.05,17.5-31.26,19.57-1.15.18-2.15,1.25-3.23,1.91H253.28a59,59,0,0,1-7.15-2.15c-9.5-4.18-18.64-9.43-25.61-16.93-8.16-8.79-14.43-19.19-17.26-31.22-1.24-5.26-2.65-10.47-4-15.7v-4a21.33,21.33,0,0,0,1-4.52q.07-76,0-151.93a21.55,21.55,0,0,0-1-4.53v-1a21.33,21.33,0,0,0,1-4.52q.06-282.44,0-564.88a21.33,21.33,0,0,0-1-4.52v-4c.67-2.26,1.28-4.53,2-6.76,3-9.09,4.69-18.92,9.35-27.06a63.85,63.85,0,0,1,31-27.67c5.85-2.44,12.45-4.28,18.72-4.32,57.46-.32,114.91-.18,172.37-.23A31.3,31.3,0,0,0,438.25-30.7Zm16.14,127q-113,0-225.93-.11c-4.89,0-6.49,1.61-6.23,6.24.24,4.34.05,8.71.05,13.06V618.1q0,47.73,0,95.47c0,6.63,0,6.64,6.67,6.64H679.32c6.88,0,6.9,0,6.9-6.91V197.18c0-31.49-.07-63,.07-94.47,0-4.8-1.3-6.55-6.46-6.53Q567.1,96.42,454.39,96.29Zm-.17,663.92c-16.77,2.08-30.77,12.4-31.78,31.52-.87,16.34,15.89,32.43,32.27,32.47,15.27,0,32.44-16.73,31.29-32.39C484.67,773.69,472.68,762.21,454.22,760.21Z" transform="translate(-199.28 30.7)"/><path class="cls-2" d="M285.18,414.76c-7.65-2.2-15.54-2.9-21.52-8.7-6.24-6.05-10.43-12.82-10.42-21.86.07-44.65,0-89.3.06-133.94,0-7.26,3.85-12.6,8-18.41,3.43-4.85,8.79-5.51,12.43-9.18.71-.71,2.55-.38,3.87-.38q111.71,0,223.41,0c8.58,0,21,9.37,23.16,19.58a86.56,86.56,0,0,1,2,17c.17,40.82.07,81.63.1,122.45,0,14.22-6.74,24.36-19.25,30.3-4.25,2-9.55,2.44-14.38,2.46-12.11.06-24.22-.82-36.34-.79-17.16.06-34.32.65-51.49.9-9.32.13-18.66,0-28,0-2.88,0-5.76-.34-8.65-.41-8.95-.21-12.23,7.82-17.33,12.69-13.95,13.31-26.94,27.62-40.82,41-4.09,3.94-7.8,9.57-15.11,8.8-4.22-.45-7.42-3.05-7.59-7.56-.42-11.09-.64-22.19-1.05-33.29C286,428.56,285.54,421.65,285.18,414.76Zm104.57-106.5c-28.63,0-57.26-.14-85.89.2-3.22,0-7.94,2-9.3,4.55-3.86,7.17,1.54,14.24,10.1,14.24q80.89,0,161.8,0c3.19,0,6.51.57,9.52-.16,2.64-.64,4.92-2.73,7.37-4.17a6,6,0,0,0,2.51-8.11c-1.77-3.82-4.74-6.63-9.71-6.61C447.35,308.32,418.55,308.26,389.75,308.26Zm-.27-20H397q39.5,0,79,0c4.69,0,7.84-2.59,9.75-6.19,2.06-3.86.14-7.82-3.32-9.57a28.17,28.17,0,0,0-12.18-3.14q-79.74-.3-159.46-.09a53,53,0,0,0-8.77.95c-6,1-9,4.51-8.52,9.61s4.42,8.39,10.05,8.39Zm-29.09,58c-19.32,0-38.65-.13-58,.14-2.62,0-6.61,1.35-7.57,3.27-4.77,9.54.09,16.57,10.94,16.58q56,0,112,0c5.47,0,8.51-4,8.5-11,0-5.38-3.32-9-8.38-9Z" transform="translate(-199.28 30.7)"/><path class="cls-2" d="M372.26,416.25a18.86,18.86,0,0,0,4,.94c8.28-.1,8.15-.13,8,7.93-.14,9.33-.12,18.66,0,28,.08,6.2,6.71,11.88,11,15.44,10.08,8.39,21.3,4.25,31.85,4.45,34.31.65,68.64.21,103,.29,4.43,0,8.86.61,13.28,1a2.86,2.86,0,0,1,1.69.67c6.32,6.38,12.57,12.82,18.9,19.2q14.85,15,29.79,29.86c4.28,4.26,8.7,8.38,13.06,12.56l1.84-.24c.53-4.08,1.32-8.14,1.53-12.23.26-5.17,0-10.37.08-15.56q.39-14.4,1-28.79a8.06,8.06,0,0,1,9.13-7.43c8.68,1.38,13.41-3.51,18.31-9.66,4.42-5.56,4.57-11.47,4.56-17.86q-.09-64,0-128c0-8.79-9.74-18.83-17.68-20.8-13.35-3.3-26.71-1.28-40-1.67-16-.46-32-.15-48-.05-1.89,0-3.77.83-6.25,1.41-3-2.12-4.56-7.85-2.28-11.65a4.68,4.68,0,0,1,3.46-1.74c19.66-.1,39.32-.07,59-.07,6.35,0,12.72-.27,19.06.07,7,.36,14.47,0,20.91,2.33a39.51,39.51,0,0,1,15.23,10.41c8.78,9.31,8.6,20.06,8.6,31.21q0,60.48,0,121c0,8.16-.49,16.17-6,22.8-5.78,7-12.32,13.11-21.89,14.08-3.07.31-4,1.71-4.13,4.26-.38,6.09-.66,12.19-1,18.28-.62,10.19-1,20.4-2,30.55-1.33,13.4-14.19,13.37-21.79,8.23-4.45-3-8-7.31-11.91-11.15-9.37-9.28-18.67-18.64-28-28C552.61,500.4,547,494,540.61,488.72c-2.75-2.28-7.3-3.31-11-3.34-39.65-.23-79.31-.18-119-.11-11.29,0-21.63-2.7-29.38-11.18a34.21,34.21,0,0,1-8.9-21.94c-.33-8-.07-16-.07-24Z" transform="translate(-199.28 30.7)"/></svg>