<svg id="Слой_1" data-name="Слой 1" xmlns="http://www.w3.org/2000/svg" viewBox="0 0 437 434.97"><defs><style>.cls-1{fill:#66c4c4;}.cls-2{fill:#185b5b;}</style></defs><title>2 шаг</title><path class="cls-1" d="M107.54,113.93c.37-1.57.72-3.15,1.12-4.71a35.51,35.51,0,0,1,34.75-26.69q31.32,0,62.65,0h204.2c13.83,0,24.51,5.76,31.74,17.56a38.06,38.06,0,0,1,3.51,8.15c1.79,5.57-1,10.86-6.24,12.42s-10.28-1.28-12-6.79c-1.88-6.1-5.81-10.09-12-11.7a20.08,20.08,0,0,0-5.08-.54q-133,0-266,0c-10.7,0-17.61,6.91-17.61,17.55v361.6c0,10.51,7,17.45,17.48,17.45H410.32c10.55,0,17.47-6.89,17.48-17.44q0-40.12,0-80.25a15.92,15.92,0,0,1,.63-4.82,9.48,9.48,0,0,1,18.42,3c.06,14.5,0,29,0,43.48,0,13,0,26,0,39,0,18.25-12.19,32.59-30.18,35.65-1.82.32-3.67.43-5.51.64h-268c-.8-.12-1.59-.29-2.4-.34a35.48,35.48,0,0,1-32-26.21c-.46-1.69-.84-3.41-1.26-5.11Z" transform="translate(-107.54 -82.51)"/><path class="cls-2" d="M544.54,170.56c-1,4.75-3.69,8.68-6.15,12.72Q479.2,280.51,420.06,377.76a31.12,31.12,0,0,1-10.41,10.44Q384.29,404,359,419.79c-3.37,2.1-6.82,2.45-10.29.44a9.12,9.12,0,0,1-4.81-9.11c.63-8.22,1.35-16.43,2-24.65q1.49-18.89,2.89-37.77a24.78,24.78,0,0,1,3.81-11.26q33.93-55.62,67.78-111.29Q447.23,182,474.1,137.86c4.7-7.72,11.6-11.15,20.48-10a23.2,23.2,0,0,1,8.52,2.95c10.44,6.12,20.73,12.49,31,18.83a21.12,21.12,0,0,1,10,14.36,3.15,3.15,0,0,0,.37.79ZM476,171.67c-.55.85-1,1.46-1.35,2.08Q421.8,260.57,368.89,347.37c-1.15,1.89-.79,2.82,1,3.88,9.85,5.95,19.65,12,29.48,17.95,2.3,1.4,2.68,1.28,4.15-1.13l95.06-156.16,11.76-19.35Zm44.24,4.51c1.46-2.37,2.78-4.51,4.09-6.65,1.42-2.35,1.35-2.67-1.06-4.15q-7.68-4.71-15.37-9.39c-4.68-2.85-9.35-5.73-14.05-8.55-1.05-.63-2.25-1.51-3.25.13-1.54,2.51-3.06,5-4.69,7.71ZM383.5,381.94l-17.21-10.49c-.6,7.64-1.16,14.76-1.75,22.31Z" transform="translate(-107.54 -82.51)"/><path class="cls-1" d="M263.65,177.2H369.51c5.7,0,9.57,3.25,10.22,8.48a9.41,9.41,0,0,1-7.5,10.32,18.52,18.52,0,0,1-3.32.27H158.29c-6,0-9.78-2.79-10.8-7.89A9.48,9.48,0,0,1,156,177.24c1-.07,1.93,0,2.89,0Z" transform="translate(-107.54 -82.51)"/><path class="cls-1" d="M234.37,285.86q-37.67,0-75.34,0a20.63,20.63,0,0,1-4.65-.38,9.48,9.48,0,0,1,1.77-18.64c.89-.06,1.78-.06,2.67-.06q75.57,0,151.13,0a17.41,17.41,0,0,1,5.05.56,9.36,9.36,0,0,1,6.43,9.61,9.46,9.46,0,0,1-8.38,8.74,30.19,30.19,0,0,1-3.56.15Z" transform="translate(-107.54 -82.51)"/><path class="cls-1" d="M203.64,375.39q-23.07,0-46.13,0c-5.49,0-9.23-3.1-10.1-8.14a9.53,9.53,0,0,1,8-10.76,22.2,22.2,0,0,1,2.45-.11h91.58c5.63,0,9.36,2.84,10.37,7.82a9.48,9.48,0,0,1-8.07,11.09,29.48,29.48,0,0,1-3.12.1Z" transform="translate(-107.54 -82.51)"/></svg>