<svg id="Слой_1" data-name="Слой 1" xmlns="http://www.w3.org/2000/svg" viewBox="0 0 488.15 396.17"><defs><style>.cls-1{fill:#67c4c4;}.cls-2{fill:#1b5c5c;}</style></defs><title>3 шаг</title><path class="cls-1" d="M377.12,374.28v-50.1q0-17.49,0-35c0-9.69-4.39-14.12-14-14.13-8.46,0-16.93,0-25.84,0V235.26H253.39v-132c1.45-.08,3-.24,4.6-.24,75.31,0,150.62-.12,225.93,0,32.65.08,61.39,25.66,65.07,57.26,4,34.32-16.33,65-49.16,72.89-9.43,2.27-19.44,2.14-29.92,3.19-.05,1.08-.21,2.83-.21,4.58,0,44.65-.09,89.3.13,134a19.3,19.3,0,0,0,3.29,9.93c5.06,7.62,10.85,14.76,16.05,22.3a13.76,13.76,0,0,1,2.41,7.25c.2,18.32.18,36.65.09,55s-11.58,29.7-29.67,29.71q-73.23.06-146.45,0c-18.2,0-29.55-11.46-29.58-29.71,0-16,.06-32-.07-48a6.24,6.24,0,0,1,3.25-6c20-12.95,39.84-26.09,59.84-39a14.36,14.36,0,0,1,6.94-2C362.74,374.11,369.56,374.28,377.12,374.28ZM302.65,161.09v16.19H269.33v13.85h33.46v16H269.34v12H392.86v16H373.13c0,7.92-.12,15.24.12,22.54a5.07,5.07,0,0,0,2.59,3.49c12,5.75,17.42,15.14,17.33,28.39-.2,29.83-.05,59.66-.05,89.49,0,3.61,0,7.22,0,11.29H376.38c5.63,6.15,10.24,11.52,15.27,16.48a10.13,10.13,0,0,0,6.39,2.7c22.66.19,45.33.11,68,.08,1.25,0,2.5-.23,4.46-.43-5.25-7.31-10.23-13.94-14.84-20.83a14.06,14.06,0,0,1-2.41-7.25q-.21-78.24-.11-156.48V219c11.42,0,22.08.27,32.71-.05,29.33-.87,52.16-29.55,46.67-58.36-4.69-24.65-24.5-41.45-49.68-41.5q-105-.21-210-.06c-1.12,0-2.23.16-3.39.25v11.91h33.21v16.05H269.48v13.85ZM475.7,425.66h-6.52c-25.65,0-51.3-.08-76.95.09a10.31,10.31,0,0,1-8.56-3.85c-9.19-10.29-18.61-20.38-28.1-30.7-17.39,11.41-34.53,22.58-51.53,34-1.25.84-2,3.3-2,5-.16,12.66-.1,25.31-.05,38,0,11.19,3.87,15,15,15H460.37c10.58,0,15.13-4.41,15.29-15.11.12-8.82,0-17.65,0-26.48ZM356.85,235.5l-1.31-.84c-.81,1.15-2.29,2.28-2.34,3.47-.24,6-.05,11.91-.12,17.87,0,3.16,1.25,3.68,3.77,2.42Z" transform="translate(-61.35 -102.99)"/><path class="cls-2" d="M244.83,119.36V219h-4.9q-23.49-.1-47-.22c-22.53-.08-41.46-14.7-46.37-36.62-1.06-4.7-3-5.23-7-5.21-24.17.12-48.33.06-72.49.06H61.35V161H66.5c24.83,0,49.66,0,74.49.06,3.13,0,4.51-.63,5.25-4.1,4.8-22.48,24-37.89,47-38,16.67-.05,33.33,0,50,0A11.47,11.47,0,0,1,244.83,119.36Zm-16,16H205.45v67.36h23.39Zm-40.06.63c-14.48.6-27.18,14.47-27.73,30-.72,20.06,10.38,34.88,27.73,36.71Z" transform="translate(-61.35 -102.99)"/><path class="cls-1" d="M356.85,235.5v22.92c-2.52,1.26-3.81.74-3.77-2.42.07-6-.12-11.92.12-17.87.05-1.19,1.53-2.32,2.34-3.47Z" transform="translate(-61.35 -102.99)"/><path class="cls-1" d="M453.41,142.69V127.38H492.9v15.31Z" transform="translate(-61.35 -102.99)"/><path class="cls-1" d="M492.89,151.3v15.48H453.52V151.3Z" transform="translate(-61.35 -102.99)"/></svg>