<svg id="Слой_1" data-name="Слой 1" xmlns="http://www.w3.org/2000/svg" viewBox="0 0 279.09 271.81"><defs><style>.cls-1{fill:#185b5b;}.cls-2{fill:#66c4c4;}</style></defs><title>шаг 4</title><path class="cls-1" d="M400.9,304.87a17.35,17.35,0,1,1,17.31-17.41A17.33,17.33,0,0,1,400.9,304.87Zm0-26a8.64,8.64,0,1,0-.18,17.28,8.64,8.64,0,1,0,.18-17.28Z" transform="translate(-191.57 -132.82)"/><path class="cls-1" d="M281.65,185.3,318.44,143l27.14,18.8c-1,.59-1.75,1.06-2.51,1.44-14,7-28,14.06-42,21a12.39,12.39,0,0,1-3.69,1.08h22.18l-.11-.47,78.06-39,19.77,39.51h11a4.69,4.69,0,0,1-2.65-2.73c-7-14.23-14.12-28.38-21.21-42.56-2.42-4.83-4-5.37-8.83-3-12.88,6.44-25.77,12.85-38.62,19.35a3.67,3.67,0,0,1-4.38-.28C342.49,149,332.34,142,322.23,135c-4.57-3.16-5.79-3-9.42,1.15q-20.56,23.63-41.09,47.32a5.52,5.52,0,0,1-2.59,1.81Z" transform="translate(-191.57 -132.82)"/><path class="cls-1" d="M461.94,240.3v1.28h-3.51c-20.07,0-40.15-.2-60.21.22-19.75.41-37.55,16.57-40.13,36.18-1.54,11.66-1.69,23.38,4.06,34.21,7.81,14.69,20.07,23.16,36.75,23.65,19.78.57,39.59.17,59.38.2h3.5c.06,1.06.16,1.93.16,2.81q0,19.69,0,39.41c0,10.85-6.53,17.36-17.39,17.36H217.66c-10.83,0-17.33-6.54-17.33-17.41q0-69,0-137.91H191.6q0,69.09.1,138.2a29.27,29.27,0,0,0,2.56,11.86c4.55,9.75,12.83,14,23.41,14H444.29a26.76,26.76,0,0,0,12.46-2.54c9.72-5,13.91-13.2,13.91-23.84q0-68.85,0-137.68Zm-.23,86.86a13.08,13.08,0,0,1-1.4.16c-20.52,0-41,.22-61.54-.17-17.33-.34-32-15.32-32.53-32.64-.22-6.9-.61-13.86,1.71-20.58,4.85-14.14,17.15-23.33,32.82-23.58,19.88-.31,39.76-.08,59.64-.07a11.2,11.2,0,0,1,1.3.16Z" transform="translate(-191.57 -132.82)"/><path class="cls-2" d="M470.64,215.11c0-2.73-.16-5.46-.42-8.18-1-10.51-10.5-20-21.1-20.74-4.24-.29-8.49-.4-12.75-.4h-2.15c-1.32,0-2.64,0-4,0a7.55,7.55,0,0,1-1,0H218.33a31.44,31.44,0,0,0-8.11.9c-11.75,3.2-18.61,12.33-18.61,24.84q-.08,83.62.09,167.23a29.09,29.09,0,0,0,2.55,11.86c4.55,9.75,12.84,14,23.41,14H444.29a26.78,26.78,0,0,0,12.46-2.54c9.71-5,13.91-13.2,13.91-23.84Q470.66,296.67,470.64,215.11Zm-8.71,26.73H461v8.76l.7.1v76.72l-.7.1v8.78h.77c.06,1.06.16,1.94.16,2.81q0,19.71,0,39.41c0,10.85-6.53,17.37-17.39,17.37H217.65c-10.82,0-17.33-6.54-17.33-17.42q0-83.21,0-166.4c0-11,6.53-17.59,17.49-17.6H444.43c11,0,17.49,6.59,17.5,17.59q0,13.41,0,26.82Z" transform="translate(-191.57 -132.82)"/></svg>