<svg id="Слой_1" data-name="Слой 1" xmlns="http://www.w3.org/2000/svg" viewBox="0 0 322.45 236.72"><defs><style>.cls-1{fill:#66c4c4;}.cls-2{fill:#185b5b;}</style></defs><title>5 шаг</title><path class="cls-1" d="M244.7,325c-.34-9.93,1.35-19.63-2.75-28.71-6.09-13.48-16.49-21.45-31.39-21.76-22.79-.48-45.6-.15-68.4-.17h-3.37v-9.77h35.08c.06-1.16.14-2.07.14-3,0-13.32,0-26.64.05-40,0-2.24-.54-3-2.83-2.91-6.32.14-12.64.05-19,.05H149v-39.9H451v39.89h-7.32c-5.13,0-10.25,0-15.38,0-1.3,0-2.29,0-2.28,1.85.05,14.26,0,28.52.05,42.78a4.77,4.77,0,0,0,.25,1h34.86v10H450.43c-20.24,0-40.48-.15-60.72.09-18.69.23-34,15.86-34.33,34.54-.07,5.19,0,10.39,0,15.82,1,.08,1.82.19,2.64.19,5,0,10.08-.08,15.11.06,2.07.05,2.88-.48,2.78-2.69-.17-4-.09-8,0-12,.1-9.26,6.43-15.57,15.68-15.59,15.55,0,31.09,0,46.63-.06,2.34,0,3.23.63,3,3-.18,2.18,0,4.4,0,6.92-4.34,0-8.42.12-12.48-.05-2.18-.08-2.7.67-2.69,2.76.08,17.42,0,34.84.08,52.26a5.73,5.73,0,0,1-1.81,4.49Q399.74,388.41,375.38,413a8.24,8.24,0,0,1-6.5,2.6q-61.49-.09-123-.05c-5.55,0-11.11.07-16.65-.06a5.38,5.38,0,0,1-3.35-1.35q-25.51-25.38-50.84-50.94a5.26,5.26,0,0,1-1-3.43c-.06-17.34,0-34.67,0-52v-3.05H158.89c0-3.15-.1-6,.11-8.88,0-.42,1.53-1.05,2.35-1.06,7.26-.08,14.52-.05,21.78-.05,8.45,0,16.91,0,25.36,0,9.25,0,15.57,6.32,15.68,15.6.05,4.19,0,8.37.08,12.56,0,.71.89,2,1.39,2C231.85,325,238.07,325,244.7,325ZM441.46,209c0-6.24-.09-12.11.05-18,.06-2.17-.81-2.57-2.71-2.54-5.71.09-11.43,0-17.15,0H300.46q-69.42,0-138.85,0c-2.24,0-3.19.43-3.09,2.94.2,4.94.18,9.91,0,14.85-.09,2.38.8,2.84,2.94,2.8,6.41-.12,12.82.12,19.22-.12,2.74-.1,3.21.85,3.2,3.32-.1,16.4-.05,32.8-.06,49.19v2.88c1,.06,1.65.13,2.31.13,7.78,0,15.55-.09,23.32,0a45.22,45.22,0,0,1,45,45.08c.07,7.52,0,15,0,22.55,0,.9-.12,1.79-.18,2.62H214.42v-3c0-6.92,0-13.84,0-20.75,0-4.48-1.9-6.33-6.42-6.34-4.87,0-9.74,0-14.61,0H184c-.08,1.17-.18,2.08-.18,3,0,16.06,0,32.12.08,48.17a6.24,6.24,0,0,0,1.62,4q22.16,22.37,44.53,44.53a5.51,5.51,0,0,0,3.53,1.45q66.48.1,133,0a5.48,5.48,0,0,0,3.51-1.5Q392.44,382,414.62,359.6a5.9,5.9,0,0,0,1.52-3.76c.1-16.22.07-32.45.06-48.68,0-.81-.13-1.62-.21-2.59-8.3,0-16.32,0-24.33,0-4.1,0-6,2-6,6.2,0,7.09,0,14.18,0,21.27,0,.89-.1,1.79-.16,2.62H345.69c0-9.6-.31-19,.06-28.37.81-20.67,18.71-39.63,39.36-41.36,9.33-.79,18.76-.39,28.15-.53.9,0,1.79,0,2.93,0V209Z" transform="translate(-138.78 -178.84)"/><path class="cls-1" d="M451.53,304.35c0-2.76-.09-5.39.06-8a2.16,2.16,0,0,1,1.39-1.56c2.7-.16,5.41-.08,8.24-.08v9.65Z" transform="translate(-138.78 -178.84)"/><path class="cls-1" d="M138.78,294.71c2.83,0,5.61-.07,8.38.07a1.93,1.93,0,0,1,1.25,1.41,58.32,58.32,0,0,1,0,6.87c0,.53-.77,1.43-1.22,1.45-2.77.13-5.55.07-8.42.07Z" transform="translate(-138.78 -178.84)"/><path class="cls-2" d="M197.19,243.71c-1.73-2.66-3.39-5.23-5.28-8.15,1.66-.89,3.14-1.86,4.74-2.52,12.5-5.19,24.5-4.25,35.85,3.24a2.84,2.84,0,0,0,3.8,0,36.7,36.7,0,0,1,41.43-.08c1.49,1,2.45,1.1,4,0a36.74,36.74,0,0,1,41.64.15,2.52,2.52,0,0,0,3.35.14c13.87-9,27.88-9,41.84-.26,1.62,1,2.55.86,4-.11,10.4-6.82,21.53-8,33.28-4.06a16.76,16.76,0,0,1,1.65.67,8.18,8.18,0,0,1,1,.68c-1.31,2.81-2.61,5.58-3.92,8.4-2.38-.61-4.64-1.35-6.95-1.73-9.06-1.51-16.85,1.13-23.48,7.4-2.25,2.13-4.94,2.18-7.16.08-11.28-10.67-27.1-10.61-38.47.15a4.85,4.85,0,0,1-6.8,0c-11.5-10.74-27.11-10.77-38.45-.07a4.79,4.79,0,0,1-7,0c-11.19-10.63-27-10.66-38.28-.07-2,1.84-5,2.21-6.59.52C223.5,239.71,210.07,236.41,197.19,243.71Z" transform="translate(-138.78 -178.84)"/><path class="cls-2" d="M254.77,274.07c0-2.78-.08-5.49.07-8.19,0-.52.95-1.06,1.56-1.44.3-.19.83,0,1.26,0H345.1v9.66Z" transform="translate(-138.78 -178.84)"/><path class="cls-2" d="M275.05,299.32v-9.51H325v9.51Z" transform="translate(-138.78 -178.84)"/></svg>