<svg id="Слой_1" data-name="Слой 1" xmlns="http://www.w3.org/2000/svg" viewBox="0 0 476.38 476.92"><defs><style>.cls-1{fill:#bfbebe;}</style></defs><title>удобство обслуживания</title><path class="cls-1" d="M545.38,458.72c-1.19,5.7-1.74,11.64-3.68,17.07C529.87,509,507,530.06,472.29,537.54a63,63,0,0,1-13.61.91c-4.6,0-8.19-2.52-11.38-5.72q-21.51-21.61-43.12-43.14-44.7-44.68-89.48-89.31a26.88,26.88,0,0,1-8.15-15.7c-.73-4.79-1.85-9.51-2.92-14.88-1.11,1-1.87,1.71-2.58,2.43q-46.5,46.44-93,92.86a8,8,0,0,0-2.59,5.95c-.91,30.1-24.13,57.05-54,62.82-38.49,7.43-74.36-17.7-80.54-56.44-6-37.41,22.22-73.77,60-77a18.35,18.35,0,0,0,12.49-5.78q48.16-48.6,96.71-96.83c3.77-3.77,7.62-7.47,11.83-11.6-4.87-4.78-9.48-9.22-14-13.75Q193.46,228,149,183.68a9.42,9.42,0,0,0-4.88-2,31,31,0,0,0-5.94-.07,18.16,18.16,0,0,1-13.84-5.72q-23.41-23.52-47-46.91c-3.7-3.66-7.09-7.42-8.36-12.64V111c1.13-5.18,4.37-8.93,8-12.54C87,88.7,96.7,78.81,106.54,69c8.8-8.76,18.32-8.75,27.05,0,15.79,15.78,31.47,31.67,47.41,47.3,4.95,4.85,7.62,10.24,7.12,17.17-.1,1.38.11,2.79,0,4.16a5.65,5.65,0,0,0,2,4.94q44.68,44.52,89.27,89.16c4.39,4.4,8.68,8.9,13,13.37.76-.58,1.1-.78,1.38-1.05q25.17-25.09,50.28-50.28a4.11,4.11,0,0,0,.71-3.33,106.72,106.72,0,0,1-2.57-42.73c5.37-39.46,37.26-74.39,76.42-83.22,5.67-1.28,11.47-2,17.21-2.94h13.7a17,17,0,0,0,1.69.48c5.85,1,11.78,1.69,17.53,3.11,5.2,1.27,10.19,3.35,15.63,5.19-1.1,1.22-1.67,1.9-2.3,2.53q-27.24,27.23-54.44,54.49a6.84,6.84,0,0,0-1.88,4.28c-.13,15.58-.08,31.15-.06,46.73a11.58,11.58,0,0,0,.25,1.6H429c14.78,0,29.56,0,44.35.07a6.63,6.63,0,0,0,5.2-2.15q27.18-27.33,54.47-54.53c.59-.6,1.24-1.13,2-1.79.36.7.6,1.13.8,1.58,16.56,37.4,7.76,83.61-21.76,111.8-27.88,26.63-60.83,35.06-98.24,25.89a4.45,4.45,0,0,0-4.91,1.35c-9.83,9.93-19.75,19.79-29.62,29.68-1.62,1.62-3.19,3.31-5,5.21,4,.78,7.34,1.74,10.77,2.07,9.47.93,16.67,5.34,23.25,12.24,15.33,16.08,31.3,31.54,47,47.24q39.46,39.43,79,78.85c4,3.93,7.89,7.79,9.12,13.52ZM273.45,334.13c.61.46.75.64.91.67q19.53,3.93,39.07,7.79c1.55.3,2.39.77,2.72,2.49q3.72,19.11,7.69,38.16a8.51,8.51,0,0,0,2.14,4c8.62,8.77,17.33,17.44,26,26.13,34.59,34.56,69.28,69,103.66,103.8,3.92,4,7.64,4.93,12.55,3.88.29-.06.57-.16.87-.21,16.06-2.84,29.19-11,40.12-22.77s17.82-25.16,19.05-41.3a6.05,6.05,0,0,0-1.89-5.27Q460.13,385.45,394,319.3a8.93,8.93,0,0,0-4.31-2.2c-13.26-2.76-26.55-5.38-39.92-8.06-2.82-14.05-5.61-28-8.62-43ZM526.29,154.38l-.88-.89a14.46,14.46,0,0,1-1.83,3c-11.53,11.62-23.13,23.17-34.69,34.77a17.59,17.59,0,0,1-13,5.49c-16.57,0-33.15.09-49.72,0-10.4-.07-17.32-7.1-17.36-17.46-.06-16.47,0-32.95,0-49.42a17.86,17.86,0,0,1,5.55-13.31c11.68-11.6,23.3-23.26,35-34.84a10.54,10.54,0,0,1,2.89-1.43l-1.09-1.07c-30-4.13-66.37,11.31-83.73,45.29A84.48,84.48,0,0,0,488.63,233.82C519.71,213.71,530.07,178.77,526.29,154.38ZM263.58,298.23c-.86.82-1.59,1.48-2.28,2.17Q246.15,315.55,231,330.69l-80.81,80.76a17.23,17.23,0,0,1-12,5.21,67.38,67.38,0,0,0-10.33,1.07c-29.45,5.9-47.4,36.22-38.5,64.64a51.29,51.29,0,0,0,53.94,35.44c24.07-2.34,44.92-23.75,45.25-47.8a22.76,22.76,0,0,1,7.28-16.85q41.2-40.86,82.16-82c5-4.94,10-9.81,15.34-15.07-1-.29-1.34-.4-1.69-.48-7.77-1.59-15.52-3.23-23.31-4.68a4,4,0,0,0-3,1.16q-27.31,27.18-54.52,54.47-8.1,8.1-16.26,16.13a8,8,0,0,1-9.37,1.56c-3.26-1.45-4.82-4.16-4.9-7.81-.09-3.9,2.66-6,5-8.38q34.68-34.77,69.37-69.53a4.84,4.84,0,0,0,1.32-3A18.24,18.24,0,0,1,262,321.75c4.33-4.06,8.57-8.21,12.71-12.18Zm39.92-18.61c-4.13-4-8.41-8.14-12.6-12.32q-57.16-57.12-114.38-114.16c-4-3.93-6.47-7.78-5.52-13.37,1.13-6.66-1.34-11.46-6.42-15.94-7.48-6.6-14.25-14-21.11-20.89-11.39,11.33-22.67,22.55-34,33.82a1,1,0,0,0,.18.39c8.75,8.77,17.49,17.57,26.32,26.26a5,5,0,0,0,3.16,1.11c4.36.12,8.73,0,13.09.1a4.86,4.86,0,0,1,3,1.2q61.94,61.79,123.76,123.66c2.5,2.5,4.83,5.16,7,7.53Zm12.32-11.92a11.92,11.92,0,0,0,1.08-.88c4.14-4.13,8.18-8.37,12.45-12.37,4.86-4.57,10.68-6.06,17.07-4s10.08,6.44,11.44,12.9c.62,2.9,1.17,5.82,1.76,8.74,1,4.68,1.93,9.37,2.8,13.6l32.92-32.87a102.08,102.08,0,0,1-42.67-42.62l-47,46.92ZM96.93,124.18,130.56,90.5,120.26,80q-17,16.94-33.72,33.63Z" transform="translate(-69 -61.54)"/><path class="cls-1" d="M476.52,479.73c-2.08-1.37-4.47-2.42-6.2-4.14Q438,443.43,405.75,411.11q-18-18-36-35.93c-3.34-3.36-4-7.25-1.92-10.79a8.11,8.11,0,0,1,9.42-3.94,11,11,0,0,1,4.45,2.73q37.67,37.45,75.2,75,12.94,12.93,25.89,25.87c4.82,4.84,3.62,11.95-2.4,14.39a21.75,21.75,0,0,1-3.44.78Z" transform="translate(-69 -61.54)"/><path class="cls-1" d="M171.79,466.84c.59,17.62-14.27,33.5-31.54,34.34-20.22,1-35.53-14.71-36.08-32.46-.56-18.36,13.85-34.13,31.37-35.09C155.33,432.54,171.51,447.92,171.79,466.84Zm-16.95.69a16.91,16.91,0,0,0-33.81-.25,17,17,0,0,0,16.66,17A16.85,16.85,0,0,0,154.84,467.53Z" transform="translate(-69 -61.54)"/></svg>