<svg id="Слой_1" data-name="Слой 1" xmlns="http://www.w3.org/2000/svg" viewBox="0 0 476.34 476.01"><defs><style>.cls-1{fill:#bebdbd;}</style></defs><title>высокая прочность</title><path class="cls-1" d="M524.57,175c-.56,4-1,8-1.72,12-3.81,21.13-13.11,39.55-28.24,54.77-34.18,34.39-68.37,68.77-102.94,102.78-16.36,16.09-36.51,25.17-59.36,27.7-33.46,3.7-62.42-6.24-86.78-29.47-6.95-6.63-8.94-16-5.32-24.45a21.6,21.6,0,0,1,21.09-13.1c5.86.28,10.66,2.87,14.82,6.93a56.6,56.6,0,0,0,27.78,15.1c23.21,5.09,43.87.2,61-16.85q48.69-48.51,97.2-97.18c13-13,19.6-28.57,19.14-46.91a61.24,61.24,0,0,0-57.3-59.85c-19.85-1.35-36.86,4.83-51,19Q334.64,164,296.19,202.26c-6.83,6.83-14.76,9.14-23.94,5.8-13.72-5-18.39-22.37-9.16-33.7a23.92,23.92,0,0,1,1.78-2C292,145.27,319,118,346.41,91.14c16.34-16,36.31-25,59-27.94,2.16-.28,4.3-.59,6.46-.89h13.6a13.55,13.55,0,0,0,1.87.4A98.33,98.33,0,0,1,467.16,74c30,16.17,48.75,40.93,55.52,74.49.86,4.25,1.27,8.59,1.89,12.89Z" transform="translate(-48.23 -62.31)"/><path class="cls-1" d="M250.34,227.6c31.9.47,56.87,10.46,77.6,30.69a21.56,21.56,0,0,1-29.49,31.47c-8.68-8.15-18.35-14.42-30-17-21.91-4.87-41.8-.31-57.89,15.47C176.28,321.84,142.22,355.68,108.72,390c-31,31.85-18,86.17,24,100.59,25,8.58,47.87,3.81,66.92-15,25.94-25.57,51.54-51.49,77.29-77.25,8.79-8.79,21-9.75,30-2.39a21.61,21.61,0,0,1,2.5,31c-.33.36-.64.73-1,1.07-26.73,26.73-53.38,53.53-80.23,80.14a101.87,101.87,0,0,1-58.3,29C122.33,544.11,76.73,519.23,58,475.84c-17.51-40.65-11.37-78.68,16.74-113,1.89-2.31,4-4.42,6.16-6.54q48.15-48.17,96.32-96.33c15.63-15.69,34.08-26.09,55.85-30.25C239.75,228.45,246.57,228.05,250.34,227.6Z" transform="translate(-48.23 -62.31)"/></svg>