<svg id="Слой_1" data-name="Слой 1" xmlns="http://www.w3.org/2000/svg" viewBox="0 0 334.96 347.96"><defs><style>.cls-1{fill:#a8367e;opacity:0.21;}</style></defs><title>результат</title><path class="cls-1" d="M305.5,126l17.05,2.27c24.27,3.22,46.49,11.83,67.27,25.28-7.44,7.79-14.58,15.45-22,22.81-.88.87-3.7.7-5.09,0a135.9,135.9,0,0,0-40.32-13.83c-37.25-6.13-71,2.25-101,24.86-32.07,24.17-50.26,56.93-54.74,96.56-4.65,41,6.82,77.69,33.85,109.1C221.9,418,249,433.37,281.53,438c40.72,5.77,76.73-5.68,107.31-33.13,25.19-22.62,39.59-51.25,44.93-84.56.07-.48.23-.95.56-2.28h33.15v2c-.49,2.19-1.08,4.37-1.44,6.58-5.43,33.33-18.37,63.21-40.7,88.79C397.58,447.17,363,466.42,321,471.81c-5.16.66-10.31,1.44-15.46,2.17h-10c-1.55-.4-3.07-.9-4.64-1.17-11.75-2-24-2.47-35.17-6.07-69.79-22.44-109.13-71.11-121-142.83-.71-4.31-1.45-8.61-2.18-12.91V289a18,18,0,0,0,1.14-3c2.69-13.63,3.72-27.83,8.23-40.82,23-66.15,68.56-106.22,138.55-117,5-.77,10-1.4,15.06-2.1Z" transform="translate(-132.52 -126.02)"/><path class="cls-1" d="M201.85,290.82l24.44-22.55,61.23,62.79,155.84-153.7,22.72,24.58-179.2,176.8Z" transform="translate(-132.52 -126.02)"/></svg>