<svg id="Слой_1" data-name="Слой 1" xmlns="http://www.w3.org/2000/svg" viewBox="0 0 385.31 274.09"><defs><style>.cls-1{fill:#34b0b0;}</style></defs><title>бургер для моблики</title><path class="cls-1" d="M183.77,437.8V391.62H493.49V437.8Z" transform="translate(-108.26 -164.01)"/><path class="cls-1" d="M183.78,210.32v-46H493.57v46Z" transform="translate(-108.26 -164.01)"/><path class="cls-1" d="M493.47,324.19H183.77V278h309.7Z" transform="translate(-108.26 -164.01)"/><path class="cls-1" d="M131.82,164A23.06,23.06,0,0,1,155,187.2,23.35,23.35,0,1,1,131.82,164Z" transform="translate(-108.26 -164.01)"/><path class="cls-1" d="M154.85,415.07c.34,13.64-12.43,23.58-23.75,23-13.55-.68-23.62-11.58-22.8-24.65.81-12.71,12-22.81,24.44-22.12C145.41,392,155.55,402.92,154.85,415.07Z" transform="translate(-108.26 -164.01)"/><path class="cls-1" d="M131.56,277.75a23.31,23.31,0,1,1,.23,46.61,23.31,23.31,0,1,1-.23-46.61Z" transform="translate(-108.26 -164.01)"/></svg>